PathFileType	4	(X/Y/Z)	/Users/itak/Documents/Research/Walk-IL/dataset/trc/00101_00007.trc
DataRate	CameraRate	NumFrames	NumMarkers	Units	OrigDataRate	OrigDataStartFrame	OrigNumFrames
100.000000	100.000000	4	53	mm	100.000000	0	580
Frame#	Time	RPSI			LPSI			L3			STRN			T10			C7			CLAV			RBAK			LBAK			LSHO			LUPA			LAEL			LAOL			LWTS			LWPS			LFRA			LIFD			LHPS			LHTS			RSHO			RUPA			RAEL			RAOL			RWTS			RWPS			RFRA			RIFD			RHTS			RHPS			RBHD			LFHD			RFHD			LBHD			LHIP			RHIP			RASI			LASI			LKNE			LTHI			LANK			LTIP			LTOE			LMT1			LMT5			LHEE			RKNE			RTHI			RANK			RTIP			RTOE			RMT1			RMT5			RHEE			
		X1	Y1	Z1	X2	Y2	Z2	X3	Y3	Z3	X4	Y4	Z4	X5	Y5	Z5	X6	Y6	Z6	X7	Y7	Z7	X8	Y8	Z8	X9	Y9	Z9	X10	Y10	Z10	X11	Y11	Z11	X12	Y12	Z12	X13	Y13	Z13	X14	Y14	Z14	X15	Y15	Z15	X16	Y16	Z16	X17	Y17	Z17	X18	Y18	Z18	X19	Y19	Z19	X20	Y20	Z20	X21	Y21	Z21	X22	Y22	Z22	X23	Y23	Z23	X24	Y24	Z24	X25	Y25	Z25	X26	Y26	Z26	X27	Y27	Z27	X28	Y28	Z28	X29	Y29	Z29	X30	Y30	Z30	X31	Y31	Z31	X32	Y32	Z32	X33	Y33	Z33	X34	Y34	Z34	X35	Y35	Z35	X36	Y36	Z36	X37	Y37	Z37	X38	Y38	Z38	X39	Y39	Z39	X40	Y40	Z40	X41	Y41	Z41	X42	Y42	Z42	X43	Y43	Z43	X44	Y44	Z44	X45	Y45	Z45	X46	Y46	Z46	X47	Y47	Z47	X48	Y48	Z48	X49	Y49	Z49	X50	Y50	Z50	X51	Y51	Z51	X52	Y52	Z52	X53	Y53	Z53	

1	0	-1947.950927734375	1126.785522460938	-298.7612609863281	-1941.7236328125	1128.353881835938	-433.0784912109375	-1951.333984375	1160.642333984375	-368.5228576660156	-1734.55712890625	1363.868041992188	-355.2262268066406	-1991.228271484375	1311.833740234375	-371.9638671875	-1953.931396484375	1603.387084960938	-386.5587768554688	-1770.160766601562	1499.268432617188	-360.8749694824219	-2014.809936523438	1419.307373046875	-303.0585021972656	-1952.508056640625	1583.85888671875	-488.10107421875	-1860.296508789062	1571.313720703125	-548.8958740234375	-1875.227661132812	1438.126220703125	-619.399658203125	-1859.163696289062	1217.677368164062	-634.2846069335938	-1929.328002929688	1206.104370117188	-582.2114868164062	-1760.040771484375	962.7706298828125	-579.99853515625	-1840.4150390625	935.426513671875	-608.1783447265625	-1842.268676757812	1102.049682617188	-634.1729125976562	-1750.291015625	770.267822265625	-548.2237548828125	-1810.194091796875	860.5167236328125	-604.4136962890625	-1743.885375976562	872.7432861328125	-586.3056030273438	-1917.141235351562	1585.954345703125	-201.4620208740234	-1940.198852539062	1513.116333007812	-138.9807891845703	-1951.342407226562	1218.577026367188	-117.4339370727539	-1945.198852539062	1216.03662109375	-215.1735229492188	-1796.951782226562	981.0411376953125	-109.2274627685547	-1874.683227539062	961.2074584960938	-87.85883331298828	-1927.810913085938	1145.859497070312	-98.313720703125	-1763.110473632812	786.8375244140625	-120.5956192016602	-1764.25537109375	873.2557983398438	-98.56503295898438	-1834.953491210938	863.167724609375	-78.24848175048828	-1938.302490234375	1762.6142578125	-303.4194030761719	-1779.684448242188	1856.33984375	-426.5743408203125	-1789.127807617188	1860.881591796875	-297.2279357910156	-1935.255981445312	1759.642333984375	-438.8359069824219	-1842.778686523438	1039.722045898438	-534.5387573242188	-1827.649658203125	1031.75927734375	-175.5491638183594	-1742.82275390625	1106.088989257812	-222.7326507568359	-1736.93798828125	1108.107788085938	-489.0635070800781	-1814.629272460938	538.345947265625	-501.5689392089844	-1835.489135742188	684.1673583984375	-531.2371826171875	-1919.639770507812	35.99169921875	-494.6988525390625	-1910.21142578125	290.0232849121094	-530.3619995117188	-1692.409301757812	38.22764205932617	-425.5104064941406	-1774.072509765625	42.38454818725586	-396.0049438476562	-1793.624267578125	31.98580932617188	-515.281494140625	-1991.078491210938	37.29012680053711	-435.8411560058594	-1833.048217773438	539.5882568359375	-203.4525299072266	-1811.307861328125	818.3783569335938	-176.2734832763672	-1935.822875976562	28.53277778625488	-218.0834197998047	-1860.308349609375	406.1816711425781	-191.5859222412109	-1702.41064453125	41.6295166015625	-260.8441467285156	-1761.91552734375	30.90842628479004	-307.2144775390625	-1803.018676757812	37.08850860595703	-192.1410980224609	-1991.405883789062	32.09040069580078	-268.2073059082031	
2	0.01	-1947.85400390625	1126.765625	-298.6678771972656	-1941.605590820312	1128.345703125	-432.981689453125	-1951.28369140625	1160.622192382812	-368.4603881835938	-1734.557373046875	1363.833740234375	-355.0946655273438	-1991.150634765625	1311.797607421875	-371.8429260253906	-1953.85791015625	1603.380981445312	-386.3597717285156	-1770.090698242188	1499.225708007812	-360.6975708007812	-2014.699340820312	1419.255737304688	-302.8291320800781	-1952.490356445312	1583.842529296875	-487.8992919921875	-1860.290649414062	1571.225341796875	-548.76318359375	-1875.28564453125	1438.04150390625	-619.186279296875	-1859.396484375	1217.562622070312	-634.0088500976562	-1929.4501953125	1206.048583984375	-581.8325805664062	-1760.2373046875	962.569580078125	-580.0546875	-1840.82421875	935.2876586914062	-607.6512451171875	-1842.584228515625	1101.927124023438	-633.9016723632812	-1750.549072265625	770.1532592773438	-547.82568359375	-1810.724487304688	860.3355102539062	-603.888916015625	-1744.269287109375	872.4503784179688	-586.187744140625	-1916.962890625	1585.90283203125	-201.2197570800781	-1940.02197265625	1513.078369140625	-138.7693481445312	-1950.993530273438	1218.515380859375	-117.1104583740234	-1944.975708007812	1215.964477539062	-214.8898010253906	-1796.467041015625	981.070556640625	-109.0410995483398	-1874.17626953125	961.2296752929688	-87.58833312988281	-1927.382080078125	1145.8369140625	-98.01275634765625	-1762.548706054688	786.9207763671875	-120.394401550293	-1763.691528320312	873.3621826171875	-98.42790985107422	-1834.361083984375	863.1631469726562	-77.96564483642578	-1938.241088867188	1762.649047851562	-303.3738708496094	-1779.562377929688	1856.253662109375	-426.6287231445312	-1789.04931640625	1860.9482421875	-297.2879028320312	-1935.159057617188	1759.541381835938	-438.7789916992188	-1842.733642578125	1039.710571289062	-534.4575805664062	-1827.521850585938	1031.7509765625	-175.43994140625	-1742.709716796875	1106.072021484375	-222.6195526123047	-1736.808349609375	1108.102416992188	-488.9205627441406	-1814.496459960938	538.3367919921875	-501.4926452636719	-1835.298095703125	684.1466064453125	-531.117919921875	-1919.634765625	35.98828506469727	-494.6940307617188	-1910.145874023438	290.0450744628906	-530.3033447265625	-1692.404052734375	38.21409225463867	-425.5156555175781	-1774.065185546875	42.38542556762695	-396.0061950683594	-1793.623046875	31.98504447937012	-515.2806396484375	-1991.06640625	37.30408477783203	-435.8297729492188	-1833.090576171875	539.5584716796875	-203.3582000732422	-1811.056640625	818.4148559570312	-176.1756591796875	-1935.830078125	28.52520942687988	-218.0790252685547	-1860.335693359375	406.1798095703125	-191.4624633789062	-1702.415893554688	41.64603424072266	-260.8357238769531	-1761.882690429688	30.92263603210449	-307.2097778320312	-1803.02197265625	37.07909393310547	-192.1298828125	-1991.412719726562	32.08403778076172	-268.1984252929688	
3	0.02	-1947.736083984375	1126.741333007812	-298.5496520996094	-1941.453369140625	1128.334106445312	-432.8538513183594	-1951.211791992188	1160.594970703125	-368.3705749511719	-1734.564697265625	1363.789794921875	-354.9338073730469	-1991.057495117188	1311.754638671875	-371.6961364746094	-1953.76513671875	1603.380981445312	-386.107177734375	-1770.001708984375	1499.175903320312	-360.4834899902344	-2014.561157226562	1419.196533203125	-302.5325622558594	-1952.457153320312	1583.818237304688	-487.6372375488281	-1860.299438476562	1571.125854492188	-548.5970458984375	-1875.35888671875	1437.9384765625	-618.9142456054688	-1859.686157226562	1217.425659179688	-633.66796875	-1929.602416992188	1205.979248046875	-581.3529052734375	-1760.469604492188	962.3350219726562	-580.1151733398438	-1841.3125	935.1275024414062	-607.0133056640625	-1842.970825195312	1101.783203125	-633.5672607421875	-1750.833374023438	770.0178833007812	-547.3587646484375	-1811.35546875	860.1259155273438	-603.2630004882812	-1744.71630859375	872.1129150390625	-586.0640258789062	-1916.734741210938	1585.85107421875	-200.9207611083984	-1939.785400390625	1513.03662109375	-138.4945983886719	-1950.554931640625	1218.448852539062	-116.7100296020508	-1944.690307617188	1215.883911132812	-214.5224761962891	-1795.8642578125	981.110595703125	-108.8061218261719	-1873.53857421875	961.2596435546875	-87.2476806640625	-1926.84619140625	1145.807495117188	-97.63816070556641	-1761.849609375	787.01416015625	-120.1445465087891	-1762.987060546875	873.484130859375	-98.25474548339844	-1833.618286132812	863.1702880859375	-77.61029815673828	-1938.163818359375	1762.69189453125	-303.3231201171875	-1779.411865234375	1856.143920898438	-426.6982727050781	-1788.955078125	1861.0390625	-297.3663940429688	-1935.035888671875	1759.410522460938	-438.7183532714844	-1842.67529296875	1039.695190429688	-534.3535766601562	-1827.368530273438	1031.741943359375	-175.2966766357422	-1742.569091796875	1106.05126953125	-222.476318359375	-1736.658813476562	1108.097778320312	-488.7507019042969	-1814.332275390625	538.3237915039062	-501.39697265625	-1835.059692382812	684.1221313476562	-530.9663696289062	-1919.628295898438	35.98549270629883	-494.6869506835938	-1910.05517578125	290.0768127441406	-530.2278442382812	-1692.395263671875	38.19775772094727	-425.5201110839844	-1774.052490234375	42.38620758056641	-396.0091247558594	-1793.621704101562	31.98419189453125	-515.2794799804688	-1991.050903320312	37.3209114074707	-435.815673828125	-1833.119384765625	539.5263061523438	-203.2423248291016	-1810.77099609375	818.45849609375	-176.0670776367188	-1935.8369140625	28.51615333557129	-218.0747375488281	-1860.35498046875	406.1768188476562	-191.309814453125	-1702.418823242188	41.66289901733398	-260.8282470703125	-1761.8486328125	30.93892860412598	-307.2041931152344	-1803.027099609375	37.06818771362305	-192.1152648925781	-1991.420288085938	32.07843780517578	-268.1891174316406	
4	0.03	-1947.603149414062	1126.714477539062	-298.4101257324219	-1941.271850585938	1128.319458007812	-432.6969909667969	-1951.1181640625	1160.561157226562	-368.2518615722656	-1734.580078125	1363.738403320312	-354.7520446777344	-1990.953857421875	1311.707397460938	-371.5307312011719	-1953.656372070312	1603.389038085938	-385.8101196289062	-1769.897094726562	1499.122680664062	-360.2462768554688	-2014.401977539062	1419.136108398438	-302.1778564453125	-1952.405517578125	1583.785522460938	-487.322021484375	-1860.328857421875	1571.025634765625	-548.403564453125	-1875.445434570312	1437.823608398438	-618.5935668945312	-1860.018798828125	1217.276611328125	-633.2789916992188	-1929.7744140625	1205.90087890625	-580.7918701171875	-1760.720703125	962.08642578125	-580.1707153320312	-1841.844970703125	934.9598388671875	-606.3043212890625	-1843.405517578125	1101.62890625	-633.186279296875	-1751.109985351562	769.8723754882812	-546.8606567382812	-1812.0400390625	859.9061889648438	-602.5797119140625	-1745.193237304688	871.761962890625	-585.94775390625	-1916.463500976562	1585.806762695312	-200.5811309814453	-1939.490966796875	1512.994995117188	-138.1638946533203	-1950.0419921875	1218.383544921875	-116.2475280761719	-1944.353637695312	1215.80224609375	-214.0827026367188	-1795.169921875	981.1619873046875	-108.5327606201172	-1872.796508789062	961.295166015625	-86.85106658935547	-1926.228271484375	1145.772705078125	-97.20656585693359	-1761.04345703125	787.1107177734375	-119.8605422973633	-1762.172241210938	873.6124267578125	-98.05168151855469	-1832.762817382812	863.1939697265625	-77.19701385498047	-1938.072509765625	1762.741821289062	-303.271240234375	-1779.240966796875	1856.01416015625	-426.7806091308594	-1788.850830078125	1861.153076171875	-297.4614562988281	-1934.89208984375	1759.254272460938	-438.6607971191406	-1842.606811523438	1039.67626953125	-534.2296142578125	-1827.196899414062	1031.733032226562	-175.1219329833984	-1742.40771484375	1106.027587890625	-222.3070678710938	-1736.499877929688	1108.095947265625	-488.5645446777344	-1814.145141601562	538.3073120117188	-501.2856140136719	-1834.786376953125	684.0960693359375	-530.7885131835938	-1919.620727539062	35.98452758789062	-494.6776428222656	-1909.940185546875	290.1187133789062	-530.1375122070312	-1692.3828125	38.17953109741211	-425.5227966308594	-1774.033203125	42.38665771484375	-396.0144348144531	-1793.620483398438	31.98342132568359	-515.2783813476562	-1991.032348632812	37.3398323059082	-435.7992248535156	-1833.124145507812	539.4946899414062	-203.1099243164062	-1810.473266601562	818.5064697265625	-175.9561004638672	-1935.8427734375	28.50665283203125	-218.0706939697266	-1860.359985351562	406.1722106933594	-191.1366729736328	-1702.417114257812	41.67800903320312	-260.8226928710938	-1761.820190429688	30.95464897155762	-307.1981201171875	-1803.033935546875	37.05613327026367	-192.0982513427734	-1991.427856445312	32.07414627075195	-268.18017578125	
